<svg width="83" height="57" viewBox="0 0 83 57" fill="none" xmlns="http://www.w3.org/2000/svg">
<path d="M31.9173 1H26.084C25.7525 1 25.4345 1.1633 25.2001 1.45398C24.9657 1.74467 24.834 2.13891 24.834 2.55V25.2833C24.834 25.4869 24.8663 25.6884 24.9291 25.8765C24.992 26.0645 25.084 26.2354 25.2001 26.3793C25.3162 26.5233 25.454 26.6375 25.6056 26.7153C25.7573 26.7932 25.9198 26.8333 26.084 26.8333H31.9173C32.0815 26.8333 32.244 26.7932 32.3957 26.7153C32.5473 26.6375 32.6851 26.5233 32.8012 26.3793C32.9173 26.2354 33.0093 26.0645 33.0722 25.8765C33.135 25.6884 33.1673 25.4869 33.1673 25.2833V2.55C33.1673 2.13891 33.0356 1.74467 32.8012 1.45398C32.5668 1.1633 32.2488 1 31.9173 1ZM56.9173 1H51.084C50.7525 1 50.4345 1.1633 50.2001 1.45398C49.9657 1.74467 49.834 2.13891 49.834 2.55V25.2833C49.834 25.4869 49.8663 25.6884 49.9291 25.8765C49.992 26.0645 50.084 26.2354 50.2001 26.3793C50.3162 26.5233 50.454 26.6375 50.6056 26.7153C50.7573 26.7932 50.9198 26.8333 51.084 26.8333H56.9173C57.0815 26.8333 57.244 26.7932 57.3957 26.7153C57.5473 26.6375 57.6851 26.5233 57.8012 26.3793C57.9173 26.2354 58.0093 26.0645 58.0722 25.8765C58.135 25.6884 58.1673 25.4869 58.1673 25.2833V2.55C58.1673 2.13891 58.0356 1.74467 57.8012 1.45398C57.5668 1.1633 57.2488 1 56.9173 1Z" stroke="#FEFEFE" stroke-width="2" stroke-linecap="round" stroke-linejoin="round"/>
<path d="M33.1673 13.9167H49.834M18.584 20.1167V7.71669C18.584 7.3056 18.7157 6.91135 18.9501 6.62067C19.1845 6.32999 19.5025 6.16669 19.834 6.16669H23.584C23.9155 6.16669 24.2334 6.32999 24.4679 6.62067C24.7023 6.91135 24.834 7.3056 24.834 7.71669V20.1167C24.834 20.5278 24.7023 20.922 24.4679 21.2127C24.2334 21.5034 23.9155 21.6667 23.584 21.6667H19.834C19.5025 21.6667 19.1845 21.5034 18.9501 21.2127C18.7157 20.922 18.584 20.5278 18.584 20.1167ZM64.4173 20.1167V7.71669C64.4173 7.3056 64.2856 6.91135 64.0512 6.62067C63.8168 6.32999 63.4988 6.16669 63.1673 6.16669H59.4173C59.0858 6.16669 58.7679 6.32999 58.5334 6.62067C58.299 6.91135 58.1673 7.3056 58.1673 7.71669V20.1167C58.1673 20.5278 58.299 20.922 58.5334 21.2127C58.7679 21.5034 59.0858 21.6667 59.4173 21.6667H63.1673C63.4988 21.6667 63.8168 21.5034 64.0512 21.2127C64.2856 20.922 64.4173 20.5278 64.4173 20.1167Z" stroke="#FEFEFE" stroke-width="2" stroke-linecap="round" stroke-linejoin="round"/>
<path d="M10.032 35.9933V37.8893H5.304V43.0733H9.312V44.9933H5.304V51.8333H1.32V35.9933H10.032ZM14.7531 34.1693C15.4091 34.1693 15.9291 34.3213 16.3131 34.6253C16.7131 34.9293 16.9131 35.3533 16.9131 35.8973C16.9131 36.4573 16.7051 36.8893 16.2891 37.1933C15.8731 37.4813 15.3371 37.6253 14.6811 37.6253C14.0411 37.6253 13.5131 37.4813 13.0971 37.1933C12.6971 36.8893 12.4971 36.4733 12.4971 35.9453C12.4971 35.3853 12.7051 34.9533 13.1211 34.6493C13.5531 34.3293 14.0971 34.1693 14.7531 34.1693ZM16.4811 49.4333C16.4811 49.8813 16.5371 50.2733 16.6491 50.6093C16.7611 50.9453 16.9531 51.2413 17.2251 51.4973C17.0491 51.7213 16.7771 51.8893 16.4091 52.0013C16.0571 52.1293 15.7051 52.1933 15.3531 52.1933C14.5211 52.1933 13.8891 51.9853 13.4571 51.5693C13.0251 51.1373 12.8091 50.5053 12.8091 49.6733V39.5933H16.4811V49.4333ZM19.2778 40.6733V39.9293C20.0458 39.6413 20.8218 39.2413 21.6058 38.7293C22.3898 38.2173 23.0378 37.6733 23.5498 37.0973H24.5818V39.5933H26.7898V40.6733H24.5578V49.2173C24.5578 49.7133 24.6458 50.0973 24.8218 50.3693C25.0138 50.6253 25.3178 50.7933 25.7338 50.8733C25.5738 51.2893 25.2778 51.6093 24.8458 51.8333C24.4138 52.0733 23.9338 52.1933 23.4058 52.1933C22.5738 52.1933 21.9418 51.9693 21.5098 51.5213C21.0938 51.0733 20.8858 50.4253 20.8858 49.5773V40.6733H19.2778ZM34.1469 55.2413C34.8029 55.2413 35.2829 55.0013 35.5869 54.5213C35.8909 54.0573 36.0749 53.4733 36.1389 52.7693C36.2189 52.0813 36.2589 51.1533 36.2589 49.9853V49.2413C35.9229 49.6893 35.4749 50.0173 34.9149 50.2253C34.3709 50.4333 33.7709 50.5373 33.1149 50.5373C31.5629 50.5373 30.4189 50.0333 29.6829 49.0253C28.9469 48.0013 28.5789 46.6253 28.5789 44.8973C28.5789 43.0253 29.0669 41.5933 30.0429 40.6013C31.0189 39.6093 32.4349 39.1133 34.2909 39.1133C35.2669 39.1133 36.1549 39.2733 36.9549 39.5933L39.7629 39.2093V49.4093C39.7629 51.0413 39.5949 52.3773 39.2589 53.4173C38.9229 54.4733 38.3309 55.2733 37.4829 55.8173C36.6349 56.3613 35.4589 56.6333 33.9549 56.6333C32.7389 56.6333 31.6589 56.3933 30.7149 55.9133C29.7709 55.4493 29.2989 54.7373 29.2989 53.7773C29.2989 53.1693 29.5069 52.7133 29.9229 52.4093C30.3549 52.1053 30.9069 51.9533 31.5789 51.9533C32.1389 51.9533 32.5149 52.0333 32.7069 52.1933C32.6109 52.6733 32.5629 53.0493 32.5629 53.3213C32.5629 53.9133 32.6909 54.3773 32.9469 54.7133C33.2029 55.0653 33.6029 55.2413 34.1469 55.2413ZM36.0909 41.1053C35.5789 40.7373 35.0029 40.5533 34.3629 40.5533C33.5629 40.5533 33.0349 40.9453 32.7789 41.7293C32.5229 42.5133 32.3949 43.5213 32.3949 44.7533C32.3949 45.9373 32.5229 46.9133 32.7789 47.6813C33.0349 48.4493 33.5549 48.8333 34.3389 48.8333C34.9469 48.8333 35.3869 48.5773 35.6589 48.0653C35.9469 47.5373 36.0909 46.8893 36.0909 46.1213V41.1053ZM47.4337 34.6493V49.4333C47.4337 49.8813 47.4897 50.2733 47.6017 50.6093C47.7137 50.9453 47.9057 51.2413 48.1777 51.4973C48.0017 51.7213 47.7297 51.8893 47.3617 52.0013C47.0097 52.1293 46.6577 52.1933 46.3057 52.1933C45.4737 52.1933 44.8417 51.9853 44.4097 51.5693C43.9777 51.1373 43.7617 50.5053 43.7617 49.6733V35.0333L47.4337 34.6493ZM56.7077 39.1133C58.6277 39.1133 60.0677 39.6813 61.0277 40.8173C62.0037 41.9533 62.4917 43.5293 62.4917 45.5453C62.4917 47.6253 62.0037 49.2813 61.0277 50.5133C60.0517 51.7453 58.6117 52.3613 56.7077 52.3613C54.8197 52.3613 53.3797 51.7693 52.3877 50.5853C51.3957 49.4013 50.8997 47.8013 50.8997 45.7853C50.8997 43.7373 51.3877 42.1133 52.3637 40.9133C53.3557 39.7133 54.8037 39.1133 56.7077 39.1133ZM56.7077 50.9213C57.5397 50.9213 58.0757 50.4333 58.3157 49.4573C58.5557 48.4813 58.6757 47.2173 58.6757 45.6653C58.6757 44.1933 58.5477 42.9773 58.2917 42.0173C58.0357 41.0413 57.5077 40.5533 56.7077 40.5533C55.9077 40.5533 55.3797 41.0413 55.1237 42.0173C54.8677 42.9933 54.7397 44.2093 54.7397 45.6653C54.7397 47.2173 54.8597 48.4813 55.0997 49.4573C55.3397 50.4333 55.8757 50.9213 56.7077 50.9213ZM82.5789 39.5933L79.1469 51.8333H74.8989L73.2909 44.7293L71.8029 51.8333H67.5309L64.5309 39.5933H68.3709L70.2909 50.0813L72.2349 39.5933H75.4749L77.4189 50.0813L79.3389 39.5933H82.5789Z" fill="#FEFEFE"/>
</svg>
